<?xml version="1.0" encoding="iso-8859-1"?>
<!-- Generator: Adobe Illustrator 19.0.0, SVG Export Plug-In . SVG Version: 6.00 Build 0)  -->
<svg xmlns="http://www.w3.org/2000/svg" xmlns:xlink="http://www.w3.org/1999/xlink" version="1.1" id="Capa_1" x="0px" y="0px" viewBox="0 0 512 512" style="enable-background:new 0 0 512 512;" xml:space="preserve" width="512px" height="512px">
<g>
	<g>
		<path d="M437.019,74.981C388.667,26.628,324.38,0,256,0S123.333,26.628,74.981,74.981C26.628,123.333,0,187.62,0,256    s26.628,132.667,74.981,181.019C123.333,485.372,187.62,512,256,512s132.667-26.628,181.019-74.981    C485.372,388.667,512,324.38,512,256S485.372,123.333,437.019,74.981z M422.877,422.877C378.303,467.452,319.038,492,256,492    s-122.303-24.548-166.877-69.123C44.548,378.303,20,319.038,20,256S44.548,133.697,89.123,89.123    C133.697,44.548,192.962,20,256,20s122.303,24.548,166.877,69.123C467.452,133.697,492,192.962,492,256    S467.452,378.303,422.877,422.877z" fill="#D80027"/>
	</g>
</g>
<g>
	<g>
		<path d="M256,53.673c-29.315,0-57.594,6.135-84.053,18.234c-5.022,2.297-7.232,8.23-4.936,13.253    c0.038,0.084,0.086,0.16,0.126,0.242c2.376,4.846,8.187,6.952,13.127,4.693c23.83-10.897,49.311-16.422,75.735-16.422    c100.536,0,182.327,81.792,182.327,182.327S356.536,438.327,256,438.327S73.673,356.536,73.673,256    c0-38.069,11.61-74.536,33.575-105.458c3.146-4.43,2.166-10.537-2.153-13.779c-0.071-0.053-0.135-0.113-0.208-0.164    c-4.502-3.197-10.745-2.141-13.944,2.362C66.561,173.285,53.673,213.757,53.673,256c0,111.563,90.764,202.327,202.327,202.327    S458.327,367.563,458.327,256S367.563,53.673,256,53.673z" fill="#D80027"/>
	</g>
</g>
<g>
	<g>
		<path d="M198.893,232.094c0.133-0.245,0.277-0.484,0.432-0.719C199.17,231.609,199.027,231.848,198.893,232.094z" fill="#D80027"/>
	</g>
</g>
<g>
	<g>
		<path d="M199.497,231.119c0.207-0.293,0.424-0.58,0.664-0.853C199.921,230.538,199.704,230.825,199.497,231.119z" fill="#D80027"/>
	</g>
</g>
<g>
	<g>
		<path d="M313.501,279.101c-0.112,0.258-0.234,0.51-0.367,0.757C313.267,279.611,313.389,279.358,313.501,279.101z" fill="#D80027"/>
	</g>
</g>
<g>
	<g>
		<path d="M313.94,277.89c-0.097,0.338-0.211,0.67-0.343,0.994C313.729,278.559,313.843,278.228,313.94,277.89z" fill="#D80027"/>
	</g>
</g>
<g>
	<g>
		<path d="M198.009,234.309c0.073-0.273,0.157-0.542,0.252-0.809C198.166,233.766,198.082,234.036,198.009,234.309z" fill="#D80027"/>
	</g>
</g>
<g>
	<g>
		<path d="M314.33,275.44c-0.011,0.363-0.049,0.722-0.099,1.077C314.28,276.161,314.318,275.803,314.33,275.44z" fill="#D80027"/>
	</g>
</g>
<g>
	<g>
		<path d="M314.181,276.82c-0.048,0.277-0.107,0.55-0.177,0.82C314.074,277.37,314.133,277.096,314.181,276.82z" fill="#D80027"/>
	</g>
</g>
<g>
	<g>
		<path d="M198.338,233.279c0.126-0.327,0.27-0.647,0.43-0.96C198.608,232.632,198.464,232.952,198.338,233.279z" fill="#D80027"/>
	</g>
</g>
<g>
	<g>
		<path d="M197.761,235.536c0.042-0.312,0.101-0.622,0.172-0.928C197.862,234.914,197.803,235.223,197.761,235.536z" fill="#D80027"/>
	</g>
</g>
<g>
	<g>
		<path d="M312.981,280.133c-0.155,0.268-0.321,0.529-0.501,0.781C312.66,280.662,312.826,280.401,312.981,280.133z" fill="#D80027"/>
	</g>
</g>
<g>
	<g>
		<path d="M313.575,112.625c3.509,1.717,5.721,5.344,5.597,9.296C319.297,117.968,317.084,114.341,313.575,112.625z" fill="#D80027"/>
	</g>
</g>
<g>
	<g>
		<path d="M313.575,112.625c-0.234-0.114-0.474-0.22-0.719-0.317c-3.921-1.552-8.396-0.476-11.184,2.689L200.161,230.266    c-0.24,0.272-0.457,0.56-0.664,0.853c-0.059,0.084-0.115,0.17-0.172,0.256c-0.154,0.234-0.298,0.474-0.432,0.719    c-0.041,0.076-0.086,0.149-0.125,0.225c-0.16,0.313-0.304,0.633-0.43,0.96c-0.028,0.073-0.05,0.148-0.077,0.221    c-0.095,0.266-0.18,0.536-0.252,0.809c-0.026,0.099-0.052,0.198-0.076,0.299c-0.071,0.306-0.13,0.616-0.172,0.928    c-0.006,0.041-0.015,0.081-0.02,0.122c-0.037,0.298-0.061,0.599-0.071,0.901l-4.842,153.519c-0.133,4.216,2.394,8.062,6.316,9.614    c1.195,0.473,2.442,0.702,3.677,0.702c2.816,0,5.569-1.191,7.507-3.392l101.511-115.269c0.199-0.226,0.386-0.461,0.563-0.703    c0.028-0.038,0.051-0.078,0.078-0.116c0.179-0.253,0.346-0.514,0.501-0.781c0.053-0.091,0.103-0.183,0.152-0.275    c0.133-0.247,0.255-0.5,0.367-0.757c0.032-0.073,0.067-0.143,0.097-0.217c0.132-0.324,0.246-0.656,0.343-0.994    c0.024-0.083,0.042-0.167,0.063-0.25c0.07-0.27,0.13-0.544,0.177-0.82c0.017-0.101,0.035-0.201,0.049-0.302    c0.05-0.355,0.088-0.714,0.099-1.077l4.842-153.519C319.296,117.969,317.084,114.342,313.575,112.625z M213.695,362.918    l3.518-111.511l70.217,27.783L213.695,362.918z M294.788,260.593l-70.217-27.784l73.734-83.727L294.788,260.593z" fill="#D80027"/>
	</g>
</g>
<g>
	<g>
		<path d="M256,89.455c-5.523,0-10,4.477-10,10v15.654c0,5.523,4.477,10,10,10s10-4.477,10-10V99.455    C266,93.932,261.523,89.455,256,89.455z" fill="#D80027"/>
	</g>
</g>
<g>
	<g>
		<path d="M256,386.891c-5.523,0-10,4.477-10,10v15.654c0,5.523,4.477,10,10,10s10-4.477,10-10v-15.654    C266,391.368,261.523,386.891,256,386.891z" fill="#D80027"/>
	</g>
</g>
<g>
	<g>
		<path d="M412.545,246h-15.654c-5.523,0-10,4.477-10,10s4.477,10,10,10h15.654c5.523,0,10-4.477,10-10S418.068,246,412.545,246z" fill="#D80027"/>
	</g>
</g>
<g>
	<g>
		<path d="M115.109,246H99.455c-5.523,0-10,4.477-10,10s4.477,10,10,10h15.654c5.523,0,10-4.477,10-10S120.632,246,115.109,246z" fill="#D80027"/>
	</g>
</g>
<g>
	<g>
		<path d="M141.979,101.115c-1.831-2.33-4.668-3.833-7.861-3.833h-0.079c-5.523,0-9.961,4.477-9.961,10    c0,2.489,0.923,4.761,2.437,6.511c1.845,2.133,4.569,3.489,7.603,3.489c5.523,0,10-4.477,10-10    C144.118,104.952,143.315,102.814,141.979,101.115z" fill="#D80027"/>
	</g>
</g>
<g>
</g>
<g>
</g>
<g>
</g>
<g>
</g>
<g>
</g>
<g>
</g>
<g>
</g>
<g>
</g>
<g>
</g>
<g>
</g>
<g>
</g>
<g>
</g>
<g>
</g>
<g>
</g>
<g>
</g>
</svg>
