<?xml version="1.0" encoding="iso-8859-1"?>
<!-- Generator: Adobe Illustrator 19.0.0, SVG Export Plug-In . SVG Version: 6.00 Build 0)  -->
<svg xmlns="http://www.w3.org/2000/svg" xmlns:xlink="http://www.w3.org/1999/xlink" version="1.1" id="Capa_1" x="0px" y="0px" viewBox="0 0 512.001 512.001" style="enable-background:new 0 0 512.001 512.001;" xml:space="preserve" width="512px" height="512px">
<g>
	<g>
		<path d="M499.634,459.257l-59.938-66.897c17.038-27.775,20.8-61.749,10.749-92.354c7.424-22.716,11.286-46.713,11.286-71.304    c0-61.089-23.789-118.521-66.985-161.717c-29.979-29.979-66.822-50.589-106.979-60.406c-0.076-0.019-0.152-0.037-0.229-0.056    c-1.914-0.466-3.832-0.916-5.76-1.332c-0.228-0.05-0.456-0.096-0.684-0.145c-1.591-0.341-3.188-0.661-4.787-0.968    c-0.572-0.109-1.145-0.214-1.717-0.319c-1.268-0.233-2.538-0.453-3.811-0.664c-0.781-0.13-1.564-0.255-2.347-0.376    c-1.083-0.168-2.168-0.325-3.254-0.478c-0.909-0.127-1.818-0.252-2.729-0.369c-0.988-0.126-1.978-0.241-2.968-0.355    c-0.974-0.112-1.948-0.223-2.924-0.323c-0.966-0.098-1.936-0.183-2.905-0.269c-0.983-0.087-1.966-0.178-2.951-0.253    c-1.021-0.077-2.045-0.138-3.068-0.202c-0.929-0.058-1.857-0.123-2.788-0.17c-1.196-0.06-2.396-0.1-3.596-0.142    c-0.763-0.027-1.524-0.064-2.288-0.084C236.987,0.028,235.01,0,233.028,0c-1.651,0-3.301,0.024-4.949,0.06    c-0.508,0.011-1.015,0.022-1.523,0.037c-1.289,0.037-2.576,0.083-3.863,0.141c-1.057,0.048-2.114,0.105-3.169,0.167    c-0.588,0.035-1.177,0.068-1.765,0.108c-2.128,0.139-4.249,0.318-6.365,0.515c-0.044,0.004-0.088,0.009-0.132,0.013    C158.393,6,109.335,28.961,71.312,66.985C28.115,110.182,4.326,167.613,4.326,228.702S28.115,347.224,71.311,390.42    c43.196,43.196,100.628,66.985,161.717,66.985c29.392,0,57.931-5.522,84.451-16.048c7.106,1.858,14.449,3.022,21.95,3.444    c2.122,0.12,4.235,0.179,6.343,0.179c16.357,0,32.246-3.581,46.757-10.412l59.913,66.869c5.632,6.304,13.382,10.037,21.822,10.513    c0.608,0.034,1.214,0.051,1.819,0.051c7.782,0,15.196-2.822,21.045-8.049C510.142,492.325,511.27,472.279,499.634,459.257z     M233.028,437.405c-115.079,0-208.703-93.624-208.703-208.703c0-30.975,6.792-60.39,18.951-86.849l2.364,14.478    c0.89,5.45,6.029,9.14,11.48,8.258c0.033-0.005,0.064-0.015,0.097-0.021c5.396-0.935,9.046-6.041,8.161-11.459l-6.45-39.511    c18.154-27.392,42.691-50.321,71.265-66.539C161.381,29.356,196.941,20,233.028,20c25.97,0,51.156,4.669,75.041,13.896    l-22.148,30.521c-10.991,15.146-13.536,34.612-6.808,52.074c8.12,21.073,3.416,45.362-11.984,61.88l-16.784,18.001    c-19.557,20.977-30.327,48.323-30.327,77.002c0,14.781-5.756,28.678-16.208,39.129c-1.675,1.676-3.974,2.4-6.309,1.998    c-2.334-0.406-4.252-1.867-5.264-4.01l-14.42-30.535c-4.149-8.788-6.343-18.57-6.343-28.288c0-23.895-17.898-43.998-41.631-46.763    l-9.19-1.071c-5.482-0.638-10.441,3.283-11.088,8.759c-0.001,0.005-0.002,0.01-0.003,0.016c-0.64,5.486,3.289,10.451,8.775,11.091    l9.191,1.071c13.652,1.591,23.946,13.154,23.946,26.897c0,12.651,2.855,25.387,8.258,36.828l14.42,30.535    c3.772,7.988,11.22,13.661,19.924,15.174c1.547,0.27,3.1,0.4,4.644,0.4c7.146,0,14.096-2.823,19.232-7.96    c14.229-14.229,22.065-33.148,22.065-53.271c0-23.6,8.863-46.103,24.955-63.363l16.783-18.001    c20.584-22.077,26.872-54.543,16.019-82.71c-4.282-11.111-2.662-23.499,4.332-33.137l24.61-33.915    c68.155,34.386,115.013,105.046,115.013,186.454c0,15.098-1.626,29.821-4.686,44.018c-2.735-4.035-5.763-7.937-9.098-11.67    c-19.644-21.986-46.674-35.007-76.112-36.664c-29.431-1.653-57.758,8.25-79.745,27.895    c-21.987,19.644-35.008,46.674-36.665,76.112c-1.656,29.438,8.25,57.758,27.894,79.745c7.676,8.591,16.484,15.806,26.118,21.517    C271.486,434.699,252.568,437.405,233.028,437.405z M405.85,401.994c-1.022,0.913-2.066,1.793-3.121,2.654    c-0.16,0.13-0.317,0.264-0.478,0.394c-0.942,0.758-1.901,1.489-2.867,2.207c-0.312,0.231-0.623,0.463-0.937,0.69    c-0.869,0.628-1.749,1.236-2.636,1.831c-0.442,0.296-0.887,0.587-1.334,0.875c-0.782,0.504-1.569,0.997-2.364,1.475    c-0.582,0.35-1.169,0.689-1.757,1.025c-14.996,8.577-32.152,12.681-49.802,11.69c-24.104-1.356-46.237-12.019-62.322-30.022    c-16.084-18.003-24.196-41.191-22.839-65.296c1.356-24.104,12.018-46.236,30.021-62.321    c16.707-14.927,37.877-22.986,60.103-22.986c1.725,0,3.458,0.049,5.194,0.146c24.104,1.356,46.237,12.019,62.322,30.021    c28.907,32.356,30.194,79.927,5.523,113.61c-0.523,0.713-1.068,1.412-1.612,2.11c-0.406,0.521-0.803,1.047-1.222,1.561    c-0.659,0.808-1.345,1.595-2.032,2.38c-0.349,0.399-0.684,0.806-1.041,1.199c-0.805,0.888-1.639,1.749-2.478,2.604    c-0.277,0.283-0.54,0.575-0.822,0.855C408.211,399.824,407.046,400.926,405.85,401.994z M483.804,489.038    c-2.32,2.072-5.31,3.124-8.415,2.943c-3.106-0.175-5.958-1.549-8.041-3.879l-57.254-63.901c3.15-2.269,6.184-4.705,9.081-7.293    c2.904-2.595,5.673-5.344,8.289-8.229l57.266,63.914C489.008,477.382,488.593,484.759,483.804,489.038z" fill="#006DF0"/>
	</g>
</g>
<g>
	<g>
		<path d="M395.065,290.429c-3.679-4.12-10.002-4.475-14.12-0.795c-0.225,0.201-0.435,0.414-0.638,0.63    c-3.503,3.738-3.635,9.596-0.157,13.489c17.005,19.034,15.355,48.354-3.678,65.36c-19.033,17.006-48.353,15.355-65.359-3.678    c-17.005-19.034-15.355-48.354,3.678-65.36c3.893-3.478,4.419-9.314,1.358-13.422c-0.177-0.238-0.362-0.473-0.563-0.698    c-3.68-4.119-10.002-4.475-14.12-0.794c-27.257,24.354-29.62,66.342-5.267,93.599c13.076,14.636,31.234,22.094,49.468,22.094    c15.726-0.001,31.508-5.549,44.131-16.826C417.055,359.674,419.418,317.686,395.065,290.429z" fill="#006DF0"/>
	</g>
</g>
<g>
	<g>
		<path d="M357.158,276.39c-0.13-0.63-0.32-1.26-0.57-1.87c-0.25-0.6-0.56-1.18-0.92-1.72c-0.37-0.55-0.79-1.06-1.25-1.52    c-0.46-0.461-0.97-0.881-1.52-1.25c-0.54-0.36-1.12-0.671-1.72-0.921c-0.61-0.25-1.24-0.439-1.87-0.569    c-1.29-0.26-2.62-0.26-3.91,0c-0.64,0.13-1.27,0.319-1.87,0.569c-0.61,0.25-1.19,0.561-1.73,0.921    c-0.55,0.369-1.06,0.789-1.52,1.25c-0.46,0.46-0.88,0.97-1.24,1.52c-0.36,0.54-0.67,1.12-0.92,1.72    c-0.25,0.61-0.44,1.24-0.57,1.87c-0.13,0.65-0.2,1.311-0.2,1.96c0,0.189,0.018,0.379,0.03,0.569    c0.028,0.463,0.078,0.927,0.17,1.381c0.13,0.639,0.32,1.269,0.57,1.87c0.25,0.6,0.56,1.189,0.92,1.729    c0.36,0.551,0.78,1.061,1.24,1.521c0.46,0.46,0.97,0.88,1.52,1.24c0.54,0.359,1.12,0.67,1.73,0.92c0.6,0.25,1.23,0.439,1.87,0.569    c0.64,0.131,1.3,0.2,1.95,0.2s1.31-0.069,1.96-0.2c0.63-0.13,1.26-0.319,1.87-0.569c0.6-0.25,1.18-0.561,1.72-0.92    c0.55-0.36,1.06-0.78,1.52-1.24c0.46-0.46,0.88-0.97,1.25-1.521c0.36-0.54,0.67-1.13,0.92-1.729c0.25-0.601,0.44-1.23,0.57-1.87    c0.052-0.254,0.084-0.513,0.114-0.772c0.046-0.392,0.076-0.786,0.076-1.178C357.348,277.701,357.288,277.04,357.158,276.39z" fill="#006DF0"/>
	</g>
</g>
<g>
	<g>
		<path d="M81.508,188.47c-0.46-0.46-0.98-0.88-1.52-1.24c-0.55-0.359-1.13-0.67-1.73-0.92c-0.6-0.25-1.23-0.439-1.87-0.569    c-1.29-0.261-2.62-0.261-3.91,0c-0.64,0.13-1.27,0.319-1.87,0.569c-0.6,0.25-1.18,0.561-1.73,0.92    c-0.358,0.239-0.699,0.512-1.028,0.798c-0.167,0.145-0.337,0.288-0.492,0.442c-1.86,1.86-2.92,4.44-2.92,7.07    c0,0.649,0.06,1.31,0.19,1.96c0.13,0.63,0.32,1.26,0.57,1.87c0.25,0.6,0.56,1.18,0.92,1.72c0.37,0.55,0.78,1.06,1.24,1.52    c0.46,0.46,0.98,0.881,1.52,1.25c0.55,0.36,1.13,0.671,1.73,0.921c0.6,0.25,1.23,0.439,1.87,0.569c0.65,0.13,1.3,0.19,1.96,0.19    c0.65,0,1.3-0.061,1.95-0.19c0.64-0.13,1.27-0.319,1.87-0.569s1.18-0.561,1.73-0.921c0.54-0.369,1.06-0.79,1.52-1.25    c0.211-0.211,0.409-0.436,0.6-0.667c0.225-0.272,0.439-0.555,0.64-0.853c0.36-0.54,0.67-1.12,0.92-1.72    c0.25-0.61,0.44-1.24,0.57-1.87c0.13-0.65,0.19-1.311,0.19-1.96C84.428,192.91,83.368,190.33,81.508,188.47z" fill="#006DF0"/>
	</g>
</g>
<g>
</g>
<g>
</g>
<g>
</g>
<g>
</g>
<g>
</g>
<g>
</g>
<g>
</g>
<g>
</g>
<g>
</g>
<g>
</g>
<g>
</g>
<g>
</g>
<g>
</g>
<g>
</g>
<g>
</g>
</svg>
