<?xml version="1.0" encoding="iso-8859-1"?>
<!-- Generator: Adobe Illustrator 19.0.0, SVG Export Plug-In . SVG Version: 6.00 Build 0)  -->
<svg xmlns="http://www.w3.org/2000/svg" xmlns:xlink="http://www.w3.org/1999/xlink" version="1.1" id="Capa_1" x="0px" y="0px" viewBox="0 0 511.999 511.999" style="enable-background:new 0 0 511.999 511.999;" xml:space="preserve" width="512px" height="512px">
<g>
	<g>
		<path d="M378.929,50.836c-67.784-67.782-178.074-67.782-245.859,0.001c-55.484,55.484-66.878,141.72-27.71,209.71L247.333,506.99    c1.785,3.099,5.09,5.009,8.666,5.009c3.577,0,6.881-1.91,8.666-5.009L406.64,260.547    C445.808,192.556,434.413,106.32,378.929,50.836z M389.306,250.562L256,481.961l-133.307-231.4    C88.031,190.394,98.115,114.08,147.215,64.98C177.208,34.988,216.603,19.993,256,19.993c39.396,0,78.793,14.996,108.785,44.988    C413.885,114.081,423.968,190.394,389.306,250.562z" fill="#933EC5"/>
	</g>
</g>
<g>
	<g>
		<path d="M256,48.008c-65.921,0-119.551,53.63-119.551,119.551S190.079,287.11,256,287.11s119.551-53.631,119.551-119.551    S321.921,48.008,256,48.008z M256,267.107c-54.89,0-99.548-44.657-99.548-99.548S201.11,68.011,256,68.011    c54.891,0,99.548,44.657,99.548,99.548S310.89,267.107,256,267.107z" fill="#933EC5"/>
	</g>
</g>
<g>
	<g>
		<path d="M316.06,115.201c-4.265-3.512-10.567-2.9-14.078,1.364c-1.866,2.266-42.831,52.166-67.636,94.39l-28.391-20.692    c-4.463-3.252-10.719-2.273-13.973,2.192c-3.254,4.463-2.274,10.72,2.191,13.973l37.472,27.31    c1.726,1.258,3.793,1.919,5.891,1.919c0.74,0,1.485-0.082,2.219-0.249c2.817-0.641,5.22-2.469,6.589-5.014    c22.68-42.155,70.598-100.53,71.08-101.115C320.935,125.015,320.324,118.712,316.06,115.201z" fill="#933EC5"/>
	</g>
</g>
<g>
	<g>
		<path d="M213.163,329.926c-0.46-0.46-0.97-0.87-1.521-1.24c-0.54-0.36-1.119-0.67-1.72-0.92c-0.61-0.25-1.24-0.44-1.87-0.57    c-1.29-0.26-2.621-0.26-3.911,0c-0.64,0.13-1.27,0.32-1.869,0.57c-0.601,0.25-1.191,0.56-1.731,0.92    c-0.55,0.37-1.06,0.78-1.52,1.24c-0.461,0.46-0.881,0.98-1.24,1.52c-0.36,0.55-0.67,1.131-0.92,1.73    c-0.25,0.6-0.44,1.23-0.57,1.87c-0.13,0.65-0.2,1.3-0.2,1.951c0,0.66,0.07,1.31,0.2,1.96c0.13,0.64,0.32,1.27,0.57,1.87    c0.25,0.6,0.56,1.18,0.92,1.72c0.359,0.55,0.779,1.06,1.24,1.52c0.46,0.47,0.97,0.88,1.52,1.25c0.54,0.36,1.13,0.67,1.731,0.92    c0.6,0.25,1.23,0.44,1.869,0.57c0.641,0.13,1.301,0.19,1.951,0.19c0.66,0,1.311-0.06,1.96-0.19c0.63-0.13,1.26-0.32,1.87-0.57    c0.601-0.25,1.18-0.56,1.72-0.92c0.551-0.37,1.061-0.78,1.521-1.25c0.46-0.46,0.88-0.97,1.25-1.52c0.36-0.54,0.67-1.12,0.92-1.72    c0.25-0.6,0.44-1.231,0.57-1.87c0.13-0.65,0.199-1.301,0.199-1.96C216.103,334.367,215.034,331.797,213.163,329.926z" fill="#933EC5"/>
	</g>
</g>
<g>
	<g>
		<path d="M255.493,403.484l-20.798-36.497c-2.736-4.8-8.842-6.472-13.642-3.737c-4.8,2.735-6.473,8.842-3.738,13.641l20.798,36.496    c1.845,3.236,5.223,5.052,8.699,5.052c1.679,0,3.38-0.423,4.943-1.314C256.555,414.39,258.228,408.283,255.493,403.484z" fill="#933EC5"/>
	</g>
</g>
<g>
</g>
<g>
</g>
<g>
</g>
<g>
</g>
<g>
</g>
<g>
</g>
<g>
</g>
<g>
</g>
<g>
</g>
<g>
</g>
<g>
</g>
<g>
</g>
<g>
</g>
<g>
</g>
<g>
</g>
</svg>
